<svg width="34" height="33" viewBox="0 0 34 33" fill="none" xmlns="http://www.w3.org/2000/svg">
<path d="M17.1701 17.5727C17.0709 17.5589 16.9434 17.5589 16.8301 17.5727C14.3367 17.4902 12.3534 15.5102 12.3534 13.0764C12.3534 10.5877 14.4217 8.56641 17.0001 8.56641C19.5642 8.56641 21.6467 10.5877 21.6467 13.0764C21.6326 15.5102 19.6634 17.4902 17.1701 17.5727Z" stroke="#6B6969" stroke-width="1.5" stroke-linecap="round" stroke-linejoin="round"/>
<path d="M26.5483 26.647C24.0267 28.8883 20.6833 30.2495 17 30.2495C13.3167 30.2495 9.97333 28.8883 7.45166 26.647C7.59333 25.3545 8.44333 24.0895 9.95916 23.0995C13.8408 20.597 20.1875 20.597 24.0408 23.0995C25.5567 24.0895 26.4067 25.3545 26.5483 26.647Z" stroke="#6B6969" stroke-width="1.5" stroke-linecap="round" stroke-linejoin="round"/>
<path d="M17 30.25C24.8241 30.25 31.1667 24.0939 31.1667 16.5C31.1667 8.90608 24.8241 2.75 17 2.75C9.17601 2.75 2.83337 8.90608 2.83337 16.5C2.83337 24.0939 9.17601 30.25 17 30.25Z" stroke="#6B6969" stroke-width="1.5" stroke-linecap="round" stroke-linejoin="round"/>
</svg>
