<svg width="14" height="16" viewBox="0 0 14 16" fill="none" xmlns="http://www.w3.org/2000/svg">
<path d="M10.1316 3.55556C10.1316 1.61616 8.51542 0 6.49522 0C4.47501 0 2.85885 1.61616 2.85885 3.55556C2.85885 5.49495 4.47501 7.11111 6.49522 7.11111C8.51542 7.11111 10.1316 5.49495 10.1316 3.55556ZM4.47501 3.55556C4.47501 2.50505 5.3639 1.61616 6.49522 1.61616C7.62653 1.61616 8.51542 2.50505 8.51542 3.55556C8.51542 4.60606 7.62653 5.49495 6.49522 5.49495C5.3639 5.49495 4.47501 4.60606 4.47501 3.55556ZM2.13158 11.798C2.45481 10.4242 3.58612 9.53535 4.87905 9.53535H8.11138C8.75784 9.53535 9.40431 9.77778 9.96996 10.1818C10.2932 10.5051 10.8589 10.4242 11.1013 10.101C11.4245 9.77778 11.3437 9.21212 11.0205 8.9697C10.2124 8.32323 9.16188 7.91919 8.11138 7.91919H4.87905C2.85885 7.91919 1.08107 9.29293 0.515418 11.3939L0.111377 12.9293C-0.131047 13.6566 0.0305692 14.4646 0.515418 15.1111C1.00027 15.6768 1.64673 16 2.45481 16H8.03057C8.51542 16 8.83865 15.6768 8.83865 15.1919C8.83865 14.7071 8.51542 14.3838 8.03057 14.3838H2.45481C2.13158 14.3838 1.96996 14.2222 1.88916 14.0606C1.64673 13.899 1.56592 13.5758 1.64673 13.3333L2.13158 11.798Z" fill="#00B894"/>
<path d="M11.3437 15.9999C11.8285 15.9999 12.1518 15.6766 12.1518 15.1918V14.3837H12.9598C13.4447 14.3837 13.7679 14.0605 13.7679 13.5756C13.7679 13.0908 13.4447 12.7675 12.9598 12.7675H12.1518V11.9594C12.1518 11.4746 11.8285 11.1514 11.3437 11.1514C10.8588 11.1514 10.5356 11.4746 10.5356 11.9594V12.7675H9.72751C9.24267 12.7675 8.91943 13.0908 8.91943 13.5756C8.91943 14.0605 9.24267 14.3837 9.72751 14.3837H10.5356V15.1918C10.5356 15.6766 10.8588 15.9999 11.3437 15.9999Z" fill="#00B894"/>
</svg>
