<svg width="26" height="26" viewBox="0 0 26 26" fill="none" xmlns="http://www.w3.org/2000/svg">
<circle cx="13" cy="13" r="12.5" fill="white" stroke="#00B894"/>
<path d="M16.1316 8.55556C16.1316 6.61616 14.5154 5 12.4952 5C10.475 5 8.85885 6.61616 8.85885 8.55556C8.85885 10.4949 10.475 12.1111 12.4952 12.1111C14.5154 12.1111 16.1316 10.4949 16.1316 8.55556ZM10.475 8.55556C10.475 7.50505 11.3639 6.61616 12.4952 6.61616C13.6265 6.61616 14.5154 7.50505 14.5154 8.55556C14.5154 9.60606 13.6265 10.4949 12.4952 10.4949C11.3639 10.4949 10.475 9.60606 10.475 8.55556ZM8.13158 16.798C8.45481 15.4242 9.58612 14.5354 10.8791 14.5354H14.1114C14.7578 14.5354 15.4043 14.7778 15.97 15.1818C16.2932 15.5051 16.8589 15.4242 17.1013 15.101C17.4245 14.7778 17.3437 14.2121 17.0205 13.9697C16.2124 13.3232 15.1619 12.9192 14.1114 12.9192H10.8791C8.85885 12.9192 7.08107 14.2929 6.51542 16.3939L6.11138 17.9293C5.86895 18.6566 6.03057 19.4646 6.51542 20.1111C7.00027 20.6768 7.64673 21 8.45481 21H14.0306C14.5154 21 14.8386 20.6768 14.8386 20.1919C14.8386 19.7071 14.5154 19.3838 14.0306 19.3838H8.45481C8.13158 19.3838 7.96996 19.2222 7.88916 19.0606C7.64673 18.899 7.56592 18.5758 7.64673 18.3333L8.13158 16.798Z" fill="#00B894"/>
<rect x="14" y="16.4937" width="1" height="5.35008" rx="0.5" transform="rotate(-29.5708 14 16.4937)" fill="#00B894"/>
<path d="M20.3153 13.5871C20.4619 13.3636 20.7584 13.2949 20.9883 13.4312L21.0078 13.4427C21.2452 13.5834 21.3237 13.8898 21.1833 14.1274L17.2711 20.7417C17.0535 21.1097 16.5043 21.0525 16.3672 20.6475L16.2132 20.1928C16.1639 20.0471 16.1844 19.8869 16.2687 19.7583L20.3153 13.5871Z" fill="#00B894"/>
</svg>
